<?xml version="1.0" standalone="no"?>
<!DOCTYPE svg PUBLIC "-//W3C//DTD SVG 20010904//EN"
 "http://www.w3.org/TR/2001/REC-SVG-20010904/DTD/svg10.dtd">
<svg version="1.0" xmlns="http://www.w3.org/2000/svg"
 width="591.000000pt" height="591.000000pt" viewBox="0 0 591.000000 591.000000"
 preserveAspectRatio="xMidYMid meet">
<metadata>
Created by potrace 1.11, written by Peter Selinger 2001-2013
</metadata>
<g transform="translate(0.000000,591.000000) scale(0.100000,-0.100000)"
fill="#000000" stroke="none">
<path d="M2830 5770 c0 -5 5 -10 10 -10 6 0 10 5 10 10 0 6 -4 10 -10 10 -5 0
-10 -4 -10 -10z"/>
<path d="M2940 5730 c0 -5 5 -10 11 -10 5 0 7 5 4 10 -3 6 -8 10 -11 10 -2 0
-4 -4 -4 -10z"/>
<path d="M2995 5700 c3 -5 11 -10 16 -10 6 0 7 5 4 10 -3 6 -11 10 -16 10 -6
0 -7 -4 -4 -10z"/>
<path d="M2666 5633 c-6 -14 -5 -15 5 -6 7 7 10 15 7 18 -3 3 -9 -2 -12 -12z"/>
<path d="M3080 5625 c13 -14 26 -25 28 -25 3 0 -5 11 -18 25 -13 14 -26 25
-28 25 -3 0 5 -11 18 -25z"/>
<path d="M2402 5373 c-46 -47 -81 -87 -79 -89 1 -2 43 37 92 86 49 50 85 90
80 89 -6 -1 -47 -39 -93 -86z"/>
<path d="M3300 5416 c0 -2 8 -10 18 -17 15 -13 16 -12 3 4 -13 16 -21 21 -21
13z"/>
<path d="M3350 5370 c0 -5 5 -10 11 -10 5 0 7 5 4 10 -3 6 -8 10 -11 10 -2 0
-4 -4 -4 -10z"/>
<path d="M2220 5186 l-75 -81 83 80 c45 44 82 81 82 82 0 12 -26 -11 -90 -81z"/>
<path d="M3535 5190 c10 -11 20 -20 23 -20 3 0 -3 9 -13 20 -10 11 -20 20 -23
20 -3 0 3 -9 13 -20z"/>
<path d="M3610 5126 c0 -11 30 -39 36 -34 2 3 -5 13 -16 23 -11 10 -20 15 -20
11z"/>
<path d="M3005 5050 c3 -5 8 -10 11 -10 2 0 4 5 4 10 0 6 -5 10 -11 10 -5 0
-7 -4 -4 -10z"/>
<path d="M2855 5028 c-50 -27 -60 -80 -22 -116 29 -28 57 -28 91 -1 41 32 34
89 -15 114 -33 18 -29 17 -54 3z"/>
<path d="M2635 5010 c-3 -6 1 -7 9 -4 18 7 21 14 7 14 -6 0 -13 -4 -16 -10z"/>
<path d="M3456 4991 c10 -20 13 -43 9 -64 -5 -24 -4 -28 4 -17 18 25 13 75 -9
95 -20 18 -20 18 -4 -14z"/>
<path d="M2711 5006 c4 -4 16 -8 28 -11 11 -2 26 -7 32 -11 7 -4 10 -1 7 7 -2
8 -20 15 -39 17 -19 2 -31 1 -28 -2z"/>
<path d="M2980 4990 c0 -11 2 -20 4 -20 2 0 6 9 9 20 3 11 1 20 -4 20 -5 0 -9
-9 -9 -20z"/>
<path d="M3315 4999 c-4 -6 -5 -12 -2 -15 2 -3 7 2 10 11 7 17 1 20 -8 4z"/>
<path d="M3367 4998 c-24 -19 -40 -67 -27 -83 8 -10 7 -22 -5 -45 -9 -18 -12
-29 -6 -25 6 3 18 22 26 41 12 30 18 34 49 34 32 0 36 3 36 25 0 24 -31 65
-48 65 -5 0 -16 -6 -25 -12z"/>
<path d="M2332 4978 c-7 -7 -12 -25 -12 -40 0 -25 3 -28 35 -28 22 0 38 -6 41
-15 5 -12 9 -12 31 2 22 15 23 18 9 28 -8 6 -20 24 -25 38 -8 21 -17 27 -39
27 -15 0 -33 -5 -40 -12z"/>
<path d="M3774 4963 c16 -18 32 -31 34 -28 3 3 3 6 1 8 -2 1 -17 13 -34 27
l-30 25 29 -32z"/>
<path d="M2640 4965 c-11 -13 -10 -14 4 -9 9 3 16 10 16 15 0 13 -6 11 -20 -6z"/>
<path d="M3105 4970 c3 -5 11 -10 16 -10 6 0 7 5 4 10 -3 6 -11 10 -16 10 -6
0 -7 -4 -4 -10z"/>
<path d="M2560 4960 c0 -5 5 -10 10 -10 6 0 10 5 10 10 0 6 -4 10 -10 10 -5 0
-10 -4 -10 -10z"/>
<path d="M2470 4945 c0 -10 29 -24 34 -17 3 6 -3 12 -14 15 -11 3 -20 4 -20 2z"/>
<path d="M2766 4914 c-8 -22 1 -31 16 -16 9 9 9 15 1 23 -7 7 -12 5 -17 -7z"/>
<path d="M2974 4919 c-8 -14 5 -29 26 -29 10 0 20 -8 22 -17 2 -11 6 -14 10
-7 4 6 -6 22 -22 36 -17 15 -32 22 -36 17z"/>
<path d="M3250 4921 c0 -12 29 -23 41 -15 5 3 7 10 4 15 -8 12 -45 12 -45 0z"/>
<path d="M2518 4913 c7 -3 16 -2 19 1 4 3 -2 6 -13 5 -11 0 -14 -3 -6 -6z"/>
<path d="M3830 4914 c0 -12 58 -69 64 -63 2 2 -11 20 -30 39 -19 19 -34 29
-34 24z"/>
<path d="M1929 4893 c-13 -16 -12 -17 4 -4 9 7 17 15 17 17 0 8 -8 3 -21 -13z"/>
<path d="M2301 4878 c9 -21 9 -34 1 -53 -16 -35 -14 -44 3 -21 19 25 19 57 0
82 -14 18 -14 17 -4 -8z"/>
<path d="M2720 4867 c0 -14 19 -37 31 -37 4 0 2 11 -4 25 -13 27 -27 33 -27
12z"/>
<path d="M3441 4860 c0 -14 9 -36 20 -50 l20 -25 -12 24 c-6 14 -15 36 -20 50
l-7 26 -1 -25z"/>
<path d="M2410 4860 c0 -5 5 -10 11 -10 5 0 7 5 4 10 -3 6 -8 10 -11 10 -2 0
-4 -4 -4 -10z"/>
<path d="M2815 4833 c5 -16 11 -198 14 -406 7 -410 4 -397 62 -397 15 0 32 6
38 14 8 10 11 116 11 377 0 200 2 381 6 402 l7 37 -73 0 -72 0 7 -27z"/>
<path d="M2970 4799 c-7 -11 -10 -23 -7 -25 2 -2 9 7 15 21 14 30 7 33 -8 4z"/>
<path d="M3306 4805 c-9 -26 -7 -32 5 -12 6 10 9 21 6 23 -2 3 -7 -2 -11 -11z"/>
<path d="M3339 4774 c-8 -9 -44 -78 -81 -153 -48 -98 -63 -139 -56 -148 15
-18 152 -17 167 1 8 9 11 61 9 162 -3 149 -10 173 -39 138z"/>
<path d="M3406 4783 c-10 -10 5 -296 17 -310 10 -13 122 -18 151 -7 25 9 19
37 -20 105 -20 33 -50 91 -66 127 -34 76 -62 105 -82 85z"/>
<path d="M2276 4763 c-6 -14 -5 -15 5 -6 7 7 10 15 7 18 -3 3 -9 -2 -12 -12z"/>
<path d="M2315 4755 c-14 -13 -25 -30 -25 -37 0 -6 -25 -63 -56 -124 -33 -66
-54 -119 -50 -129 5 -13 20 -15 88 -13 l83 3 3 163 c2 110 -1 162 -8 162 -6 0
-22 -11 -35 -25z"/>
<path d="M2388 4775 c-6 -6 1 -268 8 -302 4 -22 9 -23 88 -23 101 0 110 10 69
79 -15 25 -44 82 -65 126 -47 102 -80 140 -100 120z"/>
<path d="M4000 4746 c0 -2 7 -9 15 -16 9 -7 15 -8 15 -2 0 5 -7 12 -15 16 -8
3 -15 4 -15 2z"/>
<path d="M1749 4713 l-24 -28 28 24 c25 23 32 31 24 31 -2 0 -14 -12 -28 -27z"/>
<path d="M3520 4704 c0 -6 7 -19 16 -30 14 -18 14 -18 3 6 -14 31 -19 36 -19
24z"/>
<path d="M4080 4665 c24 -25 46 -45 47 -45 10 0 -19 38 -46 63 -49 43 -50 31
-1 -18z"/>
<path d="M3237 4673 c-4 -3 -7 -11 -7 -17 0 -6 5 -5 12 2 6 6 9 14 7 17 -3 3
-9 2 -12 -2z"/>
<path d="M1661 4628 c-14 -23 -14 -23 8 -4 22 20 25 26 13 26 -4 0 -13 -10
-21 -22z"/>
<path d="M2530 4641 c0 -6 4 -13 10 -16 6 -3 7 1 4 9 -7 18 -14 21 -14 7z"/>
<path d="M2793 4485 c0 -93 3 -233 6 -310 l8 -140 0 155 c0 85 -3 225 -7 310
l-6 155 -1 -170z"/>
<path d="M3560 4621 c0 -6 4 -13 10 -16 6 -3 7 1 4 9 -7 18 -14 21 -14 7z"/>
<path d="M2551 4605 c0 -5 6 -21 14 -35 8 -14 14 -20 14 -15 0 6 -6 21 -14 35
-8 14 -14 21 -14 15z"/>
<path d="M2186 4585 c-9 -26 -7 -32 5 -12 6 10 9 21 6 23 -2 3 -7 -2 -11 -11z"/>
<path d="M1622 4566 c-7 -15 -12 -35 -12 -44 1 -9 7 -2 16 17 17 41 14 66 -4
27z"/>
<path d="M4150 4500 c0 -32 4 -49 10 -45 6 3 10 24 10 45 0 21 -4 42 -10 45
-6 4 -10 -13 -10 -45z"/>
<path d="M2156 4523 c-6 -14 -5 -15 5 -6 7 7 10 15 7 18 -3 3 -9 -2 -12 -12z"/>
<path d="M2618 4474 c6 -11 19 -27 28 -35 16 -13 16 -12 6 7 -6 11 -19 27 -28
35 -16 13 -16 12 -6 -7z"/>
<path d="M3661 4448 c0 -7 4 -22 9 -33 8 -18 9 -17 9 7 1 15 -3 30 -9 33 -5 3
-10 0 -9 -7z"/>
<path d="M3357 4433 c-159 -3 -199 -6 -203 -17 -9 -23 30 -98 72 -139 38 -37
125 -77 166 -77 37 0 102 23 138 49 47 35 57 48 84 106 29 62 21 86 -27 83
-18 -2 -121 -4 -230 -5z"/>
<path d="M1614 4405 c4 -16 12 -34 17 -40 5 -5 4 6 -2 25 -15 45 -24 54 -15
15z"/>
<path d="M2360 4420 l-215 -5 -3 -25 c-7 -63 112 -183 195 -196 118 -18 241
61 273 175 8 30 7 38 -7 49 -9 6 -19 11 -22 10 -3 -1 -103 -5 -221 -8z"/>
<path d="M2091 4410 c0 -8 4 -24 9 -35 5 -13 9 -14 9 -5 0 8 -4 24 -9 35 -5
13 -9 14 -9 5z"/>
<path d="M2651 4394 c0 -11 3 -14 6 -6 3 7 2 16 -1 19 -3 4 -6 -2 -5 -13z"/>
<path d="M3656 4375 c-3 -9 -6 -22 -5 -28 0 -7 5 -1 10 12 5 13 8 26 5 28 -2
2 -6 -3 -10 -12z"/>
<path d="M3970 4215 c-80 -82 -109 -116 -66 -75 119 111 222 218 215 223 -2 1
-69 -65 -149 -148z"/>
<path d="M1646 4337 c3 -10 9 -15 12 -12 3 3 0 11 -7 18 -10 9 -11 8 -5 -6z"/>
<path d="M2111 4345 c0 -5 6 -21 14 -35 8 -14 14 -20 14 -15 0 6 -6 21 -14 35
-8 14 -14 21 -14 15z"/>
<path d="M2626 4324 c-4 -9 -4 -19 -1 -22 2 -3 7 3 11 12 4 9 4 19 1 22 -2 3
-7 -3 -11 -12z"/>
<path d="M3136 4327 c3 -10 9 -15 12 -12 3 3 0 11 -7 18 -10 9 -11 8 -5 -6z"/>
<path d="M1692 4285 c15 -14 30 -25 34 -25 4 0 -3 11 -16 25 -13 14 -28 25
-34 25 -6 0 1 -11 16 -25z"/>
<path d="M3160 4291 c0 -6 4 -13 10 -16 6 -3 7 1 4 9 -7 18 -14 21 -14 7z"/>
<path d="M2577 4253 c-4 -3 -7 -11 -7 -17 0 -6 5 -5 12 2 6 6 9 14 7 17 -3 3
-9 2 -12 -2z"/>
<path d="M1750 4236 c0 -2 8 -10 18 -17 15 -13 16 -12 3 4 -13 16 -21 21 -21
13z"/>
<path d="M4354 4217 c-42 -22 -1088 -1063 -1135 -1128 -51 -71 -65 -117 -55
-183 11 -70 64 -138 237 -302 90 -86 209 -199 264 -252 55 -53 192 -185 304
-292 112 -107 224 -215 250 -240 134 -130 190 -163 277 -163 105 0 136 24 457
350 161 162 316 318 346 347 95 91 443 444 456 463 43 62 55 96 55 158 0 36
-4 65 -9 65 -5 0 -14 13 -21 30 -13 31 -198 221 -414 425 -70 66 -179 170
-241 230 -62 61 -170 164 -240 230 -71 66 -159 150 -196 188 -37 37 -73 67
-81 67 -8 0 -19 5 -26 12 -7 7 -49 13 -99 15 -76 2 -94 0 -129 -20z m219 -48
c29 -15 146 -119 313 -279 147 -140 289 -277 318 -304 485 -461 512 -489 537
-541 28 -60 24 -120 -10 -180 -43 -73 -1093 -1118 -1145 -1139 -83 -34 -185
-11 -263 62 -27 24 -95 89 -153 145 -141 136 -316 303 -550 527 -107 102 -234
223 -282 268 -118 114 -144 174 -117 269 12 42 36 71 179 216 429 438 936 940
964 954 76 39 135 40 209 2z"/>
<path d="M4185 3510 c-257 -8 -277 -14 -321 -103 -50 -97 -27 -200 62 -282
l44 -40 7 -350 c8 -341 9 -350 28 -350 20 0 20 8 25 345 l5 345 55 18 c30 10
59 22 65 27 5 4 150 11 320 15 300 6 311 6 350 -14 21 -12 51 -21 65 -21 14 0
30 -4 37 -8 8 -5 14 -107 20 -347 l8 -340 23 -3 c16 -2 22 2 23 15 0 10 0 169
-1 354 l-1 336 47 38 c58 48 75 89 75 176 0 100 -41 164 -119 187 -42 13 -438
13 -817 2z"/>
<path d="M4192 3050 c-49 -20 -54 -57 -46 -367 6 -229 10 -286 21 -290 8 -3
17 -2 21 2 4 4 7 138 7 298 l0 292 22 3 c13 2 25 -4 31 -15 6 -10 12 -141 13
-291 3 -226 7 -274 19 -282 9 -5 19 -5 28 2 11 9 12 65 7 297 -4 181 -11 295
-18 309 -10 22 -55 53 -74 51 -4 0 -18 -4 -31 -9z"/>
<path d="M4454 3050 c-51 -20 -54 -36 -53 -305 1 -294 5 -340 34 -340 20 0 20
7 20 287 1 249 3 290 16 304 14 14 18 14 31 1 12 -12 16 -68 22 -299 4 -155
11 -287 16 -292 5 -5 16 -6 25 -2 15 5 16 35 13 302 l-3 296 -33 29 c-33 30
-52 34 -88 19z"/>
<path d="M4689 3031 l-29 -29 0 -276 c0 -274 6 -326 35 -326 19 0 18 -19 16
300 -2 239 -1 278 13 295 16 20 16 20 36 -4 19 -22 20 -38 20 -288 0 -264 5
-303 35 -303 25 0 27 41 22 328 l-5 277 -31 27 c-40 36 -75 36 -112 -1z"/>
<path d="M1208 4182 c-47 -22 -103 -72 -285 -256 -82 -82 -235 -237 -341 -344
-105 -107 -192 -198 -192 -201 0 -3 -17 -17 -37 -31 -41 -28 -44 -31 -93 -89
-52 -62 -73 -83 -113 -114 -34 -26 -93 -99 -125 -156 -24 -41 -27 -123 -6
-167 31 -66 73 -122 107 -143 17 -11 85 -74 149 -140 64 -67 120 -121 124
-121 5 0 51 -45 104 -100 54 -55 102 -100 109 -100 6 0 16 -11 21 -25 5 -14
18 -28 27 -32 29 -11 338 -311 366 -355 10 -16 26 -28 36 -28 10 0 34 -17 53
-38 82 -90 168 -129 257 -116 67 10 107 36 192 125 42 43 79 79 83 79 9 0 76
70 76 80 0 6 6 10 13 10 6 0 22 16 35 36 12 19 29 37 38 41 8 3 113 105 233
227 120 121 287 291 371 376 153 154 220 237 220 273 0 10 5 28 11 39 12 22
12 21 -37 120 -30 60 -36 66 -254 274 -241 229 -330 317 -330 326 0 4 -5 8
-12 8 -6 0 -57 44 -112 98 -56 53 -178 172 -272 263 -146 141 -178 168 -222
182 -64 21 -146 21 -194 -1z m175 -31 c59 -30 103 -67 229 -191 64 -63 132
-128 151 -145 20 -16 96 -88 169 -160 74 -71 220 -211 324 -311 104 -99 214
-205 245 -235 76 -73 103 -127 95 -190 -4 -26 -13 -63 -20 -81 -21 -50 -1101
-1131 -1146 -1147 -19 -7 -43 -17 -52 -22 -23 -12 -73 -12 -96 0 -9 5 -31 14
-47 21 -17 6 -56 34 -86 63 -171 162 -437 416 -462 440 -16 15 -37 32 -48 37
-10 6 -19 15 -19 20 0 9 -39 49 -151 154 -371 348 -429 415 -429 499 0 74 37
121 295 377 136 135 265 265 288 289 145 153 547 548 568 557 13 6 40 18 59
27 48 21 89 21 133 -2z"/>
<path d="M1246 3683 c-2 -2 -63 -4 -135 -4 -99 0 -134 -3 -145 -14 -25 -25 -9
-177 26 -247 16 -32 33 -58 38 -58 5 0 14 -9 20 -21 9 -16 4 -44 -25 -137 -19
-64 -40 -125 -45 -134 -5 -9 -16 -47 -25 -85 -9 -37 -25 -92 -35 -121 -35 -93
-28 -117 47 -165 23 -14 54 -43 70 -64 15 -21 30 -40 33 -43 60 -58 160 -326
160 -428 0 -76 18 -92 99 -92 43 0 72 5 79 13 5 6 13 39 17 72 28 250 160 515
285 574 46 21 49 46 15 135 -41 108 -59 161 -95 276 -19 58 -40 119 -47 137
-19 44 -17 56 16 90 62 65 95 244 55 301 -16 23 -19 23 -209 21 -107 -1 -196
-3 -199 -6z"/>
<path d="M1920 4067 c24 -26 49 -47 54 -47 13 0 -32 47 -69 73 -23 15 -20 9
15 -26z"/>
<path d="M3805 4050 c-3 -5 -1 -10 4 -10 6 0 11 5 11 10 0 6 -2 10 -4 10 -3 0
-8 -4 -11 -10z"/>
<path d="M2781 3988 c-46 -23 -65 -43 -56 -58 10 -16 300 -13 314 3 8 11 7 18
-7 30 -49 45 -184 58 -251 25z"/>
<path d="M3739 3983 c-13 -16 -12 -17 4 -4 16 13 21 21 13 21 -2 0 -10 -8 -17
-17z"/>
<path d="M2020 3976 c0 -2 8 -10 18 -17 15 -13 16 -12 3 4 -13 16 -21 21 -21
13z"/>
<path d="M2571 3919 c-19 -18 -22 -29 -19 -87 2 -36 8 -67 13 -69 6 -2 9 25 7
71 -3 68 -2 75 19 90 13 9 19 16 13 16 -6 0 -20 -9 -33 -21z"/>
<path d="M2821 3893 c-130 -2 -209 -7 -218 -14 -17 -15 -17 -60 0 -83 13 -18
31 -19 291 -14 302 5 296 4 296 63 0 47 -15 55 -94 53 -39 -2 -163 -4 -275 -5z"/>
<path d="M2134 3861 c17 -17 34 -31 39 -31 14 0 -23 39 -48 52 -14 8 -12 2 9
-21z"/>
<path d="M2210 3792 c0 -12 19 -26 26 -19 2 2 -2 10 -11 17 -9 8 -15 8 -15 2z"/>
<path d="M3198 3763 c7 -3 16 -2 19 1 4 3 -2 6 -13 5 -11 0 -14 -3 -6 -6z"/>
<path d="M3477 3723 c-4 -3 -7 -11 -7 -17 0 -6 5 -5 12 2 6 6 9 14 7 17 -3 3
-9 2 -12 -2z"/>
<path d="M3385 3630 c-27 -27 -44 -50 -39 -50 6 0 30 23 53 50 23 28 41 50 39
50 -2 0 -26 -22 -53 -50z"/>
<path d="M2360 3654 c0 -8 77 -84 105 -104 11 -7 -7 14 -40 48 -60 63 -65 67
-65 56z"/>
<path d="M3210 3455 c-47 -47 -81 -85 -77 -85 12 0 184 170 172 170 -6 0 -48
-38 -95 -85z"/>
<path d="M2610 3408 c0 -2 28 -28 63 -57 l62 -54 -45 47 c-39 41 -80 74 -80
64z"/>
<path d="M3085 3330 c-16 -16 -25 -30 -19 -29 8 0 60 59 52 59 -3 0 -17 -13
-33 -30z"/>
<path d="M2995 3259 c-11 -17 1 -21 15 -4 8 9 8 15 2 15 -6 0 -14 -5 -17 -11z"/>
<path d="M2798 3243 c7 -3 16 -2 19 1 4 3 -2 6 -13 5 -11 0 -14 -3 -6 -6z"/>
<path d="M2806 2663 c-46 -24 -213 -176 -338 -308 -31 -33 -64 -67 -72 -75
-48 -46 -191 -188 -336 -333 -91 -91 -190 -190 -220 -220 -120 -119 -203 -216
-226 -263 -24 -50 -32 -128 -15 -162 43 -88 54 -103 125 -174 63 -62 341 -325
385 -364 40 -35 128 -122 158 -156 6 -7 55 -53 107 -103 53 -49 143 -135 200
-190 57 -55 122 -117 145 -138 23 -21 41 -43 41 -48 0 -5 8 -9 18 -9 9 0 39
-11 67 -25 31 -16 64 -25 90 -24 41 1 96 17 105 30 3 5 15 12 27 16 12 4 75
61 140 126 65 64 126 125 136 135 10 9 76 75 146 147 71 72 136 137 145 145 9
8 64 64 123 124 165 167 295 295 326 319 38 30 104 119 138 186 36 70 37 128
5 196 -28 59 -27 57 -276 295 -107 102 -215 205 -240 230 -26 25 -87 83 -136
130 -49 47 -185 177 -302 290 -190 182 -219 207 -274 227 -77 29 -130 28 -192
-4z m199 -63 c11 -4 56 -41 100 -83 44 -41 95 -87 114 -103 18 -15 82 -75 140
-133 149 -148 369 -358 716 -685 33 -31 63 -56 67 -56 5 0 8 -8 8 -17 0 -10 9
-33 20 -51 20 -33 27 -106 11 -116 -4 -3 -11 -19 -14 -35 -5 -26 -128 -180
-152 -190 -9 -4 -358 -353 -554 -555 -51 -53 -95 -96 -97 -96 -2 0 -70 -67
-151 -149 -81 -82 -158 -152 -170 -156 -13 -3 -29 -12 -37 -20 -7 -8 -38 -16
-67 -18 -45 -4 -59 -1 -85 19 -17 13 -35 24 -41 24 -11 0 -71 56 -269 248 -75
72 -139 132 -141 132 -3 0 -53 48 -113 108 -59 59 -164 161 -235 227 -70 66
-159 150 -197 188 -39 37 -72 67 -74 67 -16 0 -93 103 -111 148 -26 68 -28
102 -8 128 8 10 15 27 15 36 0 10 17 34 38 55 20 22 56 59 78 83 23 25 81 84
130 131 49 47 157 155 240 240 84 85 183 183 220 219 38 36 76 74 85 85 9 11
27 29 40 41 13 11 56 54 95 95 162 170 234 214 329 203 28 -4 59 -10 70 -14z"/>
<path d="M2535 1971 c-217 -7 -232 -12 -278 -88 -35 -56 -35 -105 -3 -138 23
-23 30 -24 84 -19 52 6 61 4 79 -15 11 -12 23 -39 27 -59 3 -20 6 -194 6 -385
0 -302 2 -352 16 -380 22 -42 64 -82 94 -90 26 -7 928 11 967 19 26 5 83 100
83 138 0 29 -16 66 -34 78 -6 4 -48 8 -93 8 -45 0 -84 4 -87 8 -3 5 -8 186
-11 403 -8 452 -9 457 -88 504 l-44 25 -264 -2 c-145 -1 -349 -4 -454 -7z"/>
</g>
</svg>
